<svg xmlns="http://www.w3.org/2000/svg" viewBox="0 0 24 24" width="20" height="20">
  <defs>
    <linearGradient id="folderGrad" x1="0%" y1="0%" x2="0%" y2="100%">
      <stop offset="0%" style="stop-color:#FDD835;stop-opacity:1" />
      <stop offset="100%" style="stop-color:#F9A825;stop-opacity:1" />
    </linearGradient>
  </defs>
  <!-- Folder back part -->
  <path d="M20 6h-8l-2-2H4c-1.1 0-1.99.9-1.99 2L2 18c0 1.1.9 2 2 2h16c1.1 0 2-.9 2-2V8c0-1.1-.9-2-2-2z" 
        fill="url(#folderGrad)" stroke="#F57F17" stroke-width="0.5"/>
  <!-- Folder tab -->
  <path d="M10 4H4c-1.1 0-2 .9-2 2v1h10V5c0-.55-.45-1-1-1z" 
        fill="#FFEB3B" stroke="#F57F17" stroke-width="0.5"/>
  <!-- Shadow for depth -->
  <path d="M20 6h-8l-2-2H4c-1.1 0-1.99.9-1.99 2L2 18c0 1.1.9 2 2 2h16c1.1 0 2-.9 2-2V8c0-1.1-.9-2-2-2z" 
        fill="#000" opacity="0.1"/>
</svg>